<svg xmlns="http://www.w3.org/2000/svg" viewBox="0 0 100 100" width="28" height="28">
<g transform="translate(0 0)">
<path d="M45.2 25.7 L55.1 25.8 L56.6 27.3 L56.8 33.5 L58.9 33.6 L64.6 34.5 L69.4 35.7 L74.5 37.4 L81.4 40.5 L85.5 43.1 L90 46.7 L93.9 51.3 L95.4 53.9 L96.6 56.4 L97.7 60 L98 63.9 L97.8 67.1 L97 70.3 L95.3 74.1 L94.9 74.2 L92.1 72.1 L88.4 69.9 L85.2 68.2 L79.3 65.8 L73.3 63.8 L70.2 63 L65.1 62 L60.5 61.3 L60.3 61.5 L59.2 63.8 L56.9 68 L43 68 L42.3 67.1 L39.6 61.5 L39.3 61.3 L34.8 62 L29.7 63 L26.6 63.8 L20.6 65.8 L14.7 68.2 L11.5 69.9 L4.7 74.2 L3.3 71.4 L2.3 68.5 L1.8 63.9 L2 61.6 L2.6 58.3 L3.5 55.7 L6 51.3 L7.9 48.8 L9.9 46.7 L14.3 43.1 L18.5 40.5 L21.6 38.9 L25.4 37.4 L30.5 35.7 L35.9 34.4 L43.1 33.5 L43.2 27.3 L44.4 26 Z" fill="#3f9e63" fill-rule="evenodd" stroke="#0d3a22" stroke-width="3.4" stroke-linejoin="round"/>
<path d="M45.3 52.6 L46.7 52.7 L48.4 53.3 L51.4 53.3 L53.8 52.6 L54.6 52.6 L54.7 52.7 L54.6 57 L54 59.1 L53.3 60.8 L53.4 60.9 L54.2 60.9 L54.2 61.2 L53.9 61.8 L52.9 63.4 L52.1 64.2 L50.9 64.8 L49.3 65 L48.2 64.5 L47 63.4 L46 61.8 L45.7 60.9 L46.5 60.9 L46.6 60.8 L45.8 59.1 L45.3 57 L45.3 56 L45.2 55.9 L45.2 52.7 Z" fill="#2f7d4a" fill-rule="evenodd" stroke="#0d3a22" stroke-width="0.8" stroke-linejoin="round"/>
<path d="M42.6 33.5 L43.2 33.5 L43.2 34.9 L43.4 35 L43.8 35 L44.8 35.7 L45.8 36.1 L47.3 37.1 L49.6 37.8 L50.3 37.8 L52.6 37.1 L54 36.1 L55.1 35.7 L56.1 35 L56.5 35 L56.6 34.9 L56.6 33.5 L58.7 33.6 L58.9 33.7 L61.6 34 L62.4 34.2 L64.6 34.5 L70.7 36.1 L76.4 38.2 L77.3 38.7 L78.3 38.9 L81.1 40.5 L81.4 40.5 L81.8 40.9 L83.1 41.5 L83.9 42.2 L84.1 42.2 L84.5 42.6 L85.2 42.8 L85.7 43.4 L86.1 43.5 L86.2 43.8 L86.7 44 L86.8 44.3 L87.4 44.5 L88.8 45.7 L89.2 46.2 L90 46.7 L91.9 48.8 L93.2 50.7 L93.9 51.3 L96.4 55.7 L97.3 58.3 L97.7 60 L97.8 61.5 L97.9 61.6 L97.9 63.8 L98 63.9 L97.9 64.1 L97.9 66.1 L97.8 66.3 L97.5 68.5 L97.3 68.9 L97 70.3 L95.3 74.1 L94.9 74.2 L90.2 71 L85.4 68.5 L85.2 68.2 L77.5 65.1 L77.1 65.1 L75.4 64.5 L74.1 64.2 L73.3 63.8 L72.8 63.8 L70.2 63 L69 62.9 L68.4 62.6 L67.8 62.6 L65.1 62 L62.6 61.7 L62.5 61.6 L61.6 61.6 L61.5 61.5 L60.5 61.5 L60.4 61.3 L59.5 61.3 L59.4 61.2 L56.2 61.1 L56.1 60.9 L53.6 60.9 L53.3 60.8 L54.3 58.3 L54.6 56.5 L54.7 56.4 L54.7 54.4 L54.8 54.3 L54.7 54.2 L54.7 51.8 L54.8 51.7 L54.7 49.2 L54 47 L52.9 45.2 L52 44.4 L51.2 44 L49.9 43.8 L48.7 44 L47.9 44.4 L47 45.2 L45.8 47 L45.2 49.2 L45.2 50.3 L45.1 50.4 L45.2 56.4 L45.3 56.5 L45.6 58.3 L46.6 60.8 L46.2 60.9 L43.8 60.9 L43.6 61.1 L40.5 61.2 L40.4 61.3 L39.5 61.3 L39.3 61.5 L38.4 61.5 L38.3 61.6 L37.4 61.6 L37.2 61.7 L34.8 62 L34.6 62.1 L31.5 62.6 L30.9 62.9 L29.7 63 L27.1 63.8 L26.6 63.8 L25.8 64.2 L25.4 64.2 L22.8 65.1 L22.4 65.1 L14.7 68.2 L14.5 68.5 L9.6 71 L4.9 74.2 L4.7 74.2 L3.3 71.4 L3.3 71 L2.9 70.3 L2.6 68.9 L2.3 68.5 L2.1 66.3 L2 66.1 L2 64.1 L1.8 63.9 L2 63.8 L2 61.6 L2.1 61.5 L2.1 60.8 L2.2 60.7 L2.2 60 L2.6 58.3 L3.5 55.7 L6 51.3 L6.6 50.7 L7.9 48.8 L9.9 46.7 L10.7 46.2 L11.1 45.7 L12.5 44.5 L13 44.3 L13.2 44 L13.7 43.8 L13.8 43.5 L14.2 43.4 L14.3 43.1 L15 42.8 L15.8 42.2 L16 42.2 L16.4 41.8 L18.1 40.9 L18.5 40.5 L18.8 40.5 L21.6 38.9 L22.5 38.7 L25.4 37.4 L25.8 37.4 L26.8 36.8 L27.6 36.7 L30.5 35.7 L31 35.7 L32.6 35.2 L33.6 35 L35.9 34.4 L41 33.7 L41.1 33.6 L42.4 33.6 Z" fill="#5fbf72" fill-rule="evenodd" stroke="#0d3a22" stroke-width="0.8" stroke-linejoin="round"/>
<path d="M45.2 25.7 L45.4 25.8 L45.6 25.7 L54.3 25.7 L54.4 25.8 L54.7 25.7 L55.5 26 L56.6 27.3 L56.6 34.9 L53.8 36.2 L52.5 37.1 L51.2 37.4 L50.3 37.8 L49.6 37.8 L48.7 37.4 L47.4 37.1 L46.1 36.2 L43.2 34.9 L43.2 27.3 L44.4 26 Z M49.7 27.6 L50.1 27.6 L51.8 28.6 L51.8 30.6 L51.7 30.9 L50 31.8 L48.2 30.9 L48 30.6 L48 28.6 Z M45.6 28 L45.8 28 L46.7 28.5 L47.5 29.2 L47.5 29.7 L47.4 29.8 L47.4 30.6 L47.5 30.7 L47.4 31.1 L45.7 32.2 L43.9 31.1 L43.9 29 Z M54 28 L54.3 28 L56 29 L56 31.1 L54.3 32.2 L52.7 31.4 L52.3 30.7 L52.5 30.6 L52.3 29.2 Z" fill="#b08a56" fill-rule="evenodd" stroke="#0d3a22" stroke-width="0.8" stroke-linejoin="round"/>
<path d="M44.3 60.9 L45.6 60.9 L46.1 62.1 L47 63.4 L48.3 64.6 L49.2 65 L50.7 65 L52.1 64.2 L53.4 62.8 L54.3 60.9 L59.2 61.2 L59.4 61.3 L60 61.3 L60.3 61.5 L60.3 61.7 L59.5 63 L57.6 67.1 L56.9 68 L56.6 67.8 L43.2 67.8 L43 68 L42.3 67.1 L40.4 63 L39.6 61.7 L39.6 61.5 L40.6 61.2 L44.1 61.1 Z" fill="#b08a56" fill-rule="evenodd" stroke="#0d3a22" stroke-width="0.8" stroke-linejoin="round"/>
<path d="M49.3 43.9 L50.7 43.9 L52 44.4 L52.7 45.1 L53.5 46.1 L54.2 47.4 L54.7 49.2 L54.7 51.2 L54.8 51.3 L54.7 51.6 L54.7 52.5 L52.6 52.9 L52 53.1 L50.1 53.1 L50 53.3 L49.7 53.1 L48 53.1 L46.2 52.6 L45.2 52.5 L45.2 49.3 L45.7 47.4 L46.4 46.1 L47.8 44.5 L48.4 44.1 Z" fill="#ffd90f" fill-rule="evenodd" stroke="#0d3a22" stroke-width="0.8" stroke-linejoin="round"/>
<path d="M49.7 27.5 L50.1 27.5 L51.8 28.5 L51.8 30.9 L50 31.9 L48 30.9 L48 28.5 Z" fill="#e02a22" fill-rule="evenodd" stroke="#0d3a22" stroke-width="0.8" stroke-linejoin="round"/>
<path d="M45.6 27.9 L45.8 27.9 L47.5 28.9 L47.5 31.1 L47.1 31.5 L45.7 32.3 L45.1 32 L43.8 31.1 L43.9 28.9 Z" fill="#e02a22" fill-rule="evenodd" stroke="#0d3a22" stroke-width="0.8" stroke-linejoin="round"/>
<path d="M54 27.9 L54.3 27.9 L55.2 28.5 L55.9 28.8 L56.1 29.6 L56.1 31.1 L54.3 32.3 L53.4 31.9 L52.3 31.1 L52.3 28.9 Z" fill="#e02a22" fill-rule="evenodd" stroke="#0d3a22" stroke-width="0.8" stroke-linejoin="round"/>
</g>
</svg>
